<svg width="51" height="51" viewBox="0 0 51 51" fill="none" xmlns="http://www.w3.org/2000/svg">
<path d="M19.125 17.8092H29.0798C31.2866 17.8092 33.0765 19.7953 33.0765 21.8058C33.0765 24.0126 31.2866 25.8025 29.0798 25.8025H19.125V17.8092Z" stroke="#0582CA" stroke-width="3.06" stroke-miterlimit="10" stroke-linecap="round" stroke-linejoin="round"/>
<path d="M19.125 25.7778H30.5019C33.0274 25.7778 35.0625 27.5677 35.0625 29.7745C35.0625 31.9812 33.0274 33.7711 30.5019 33.7711H19.125V25.7778Z" stroke="#0582CA" stroke-width="3.06" stroke-miterlimit="10" stroke-linecap="round" stroke-linejoin="round"/>
<path d="M26.0894 33.7467V37.7433" stroke="#0582CA" stroke-width="3.06" stroke-miterlimit="10" stroke-linecap="round" stroke-linejoin="round"/>
<path d="M21.1089 33.7467V37.7433" stroke="#0582CA" stroke-width="3.06" stroke-miterlimit="10" stroke-linecap="round" stroke-linejoin="round"/>
<path d="M26.0894 13.8125V17.8091" stroke="#0582CA" stroke-width="3.06" stroke-miterlimit="10" stroke-linecap="round" stroke-linejoin="round"/>
<path d="M21.1089 13.8125V17.8091" stroke="#0582CA" stroke-width="3.06" stroke-miterlimit="10" stroke-linecap="round" stroke-linejoin="round"/>
<path d="M22.901 17.8092H15.9375" stroke="#0582CA" stroke-width="3.06" stroke-miterlimit="10" stroke-linecap="round" stroke-linejoin="round"/>
<path d="M22.901 33.7467H15.9375" stroke="#0582CA" stroke-width="3.06" stroke-miterlimit="10" stroke-linecap="round" stroke-linejoin="round"/>
<path d="M25.5 46.75C37.236 46.75 46.75 37.236 46.75 25.5C46.75 13.7639 37.236 4.25 25.5 4.25C13.7639 4.25 4.25 13.7639 4.25 25.5C4.25 37.236 13.7639 46.75 25.5 46.75Z" stroke="#0582CA" stroke-width="3.06" stroke-miterlimit="10"/>
</svg>
