<svg width="51" height="51" viewBox="0 0 51 51" fill="none" xmlns="http://www.w3.org/2000/svg">
<path d="M22.2086 6.48125L14.2611 16.3838C12.4548 18.6363 13.0923 21.5263 15.6636 22.8013L23.5898 26.775C24.6311 27.285 26.3311 27.285 27.3723 26.775L35.2986 22.8013C37.8698 21.505 38.5073 18.615 36.7011 16.3838L28.7748 6.48125C26.9898 4.2075 24.0148 4.2075 22.2086 6.48125Z" stroke="#0582CA" stroke-width="3.13" stroke-miterlimit="10" stroke-linecap="round" stroke-linejoin="round"/>
<path d="M25.501 4.88748V16.065" stroke="#0582CA" stroke-width="3.13" stroke-miterlimit="10" stroke-linecap="round" stroke-linejoin="round"/>
<path d="M16.5776 22.7588L25.5026 16.065L34.4276 22.7588" stroke="#0582CA" stroke-width="3.13" stroke-miterlimit="10" stroke-linecap="round" stroke-linejoin="round"/>
<path d="M18.6416 30.6638L22.0629 32.1938C24.2516 33.1713 26.7591 33.1713 28.9691 32.1938L32.3904 30.6638C35.4504 29.3038 38.2766 33.0013 36.1516 35.5938L28.7991 44.5825C26.9929 46.7925 24.0391 46.7925 22.2116 44.5825L14.8804 35.5938C12.7341 33.0013 15.5604 29.3038 18.6416 30.6638Z" stroke="#0582CA" stroke-width="3.13" stroke-miterlimit="10" stroke-linecap="round" stroke-linejoin="round"/>
</svg>
